<svg width="37" height="47" viewBox="0 0 37 47" fill="none" xmlns="http://www.w3.org/2000/svg">
<path fill-rule="evenodd" clip-rule="evenodd" d="M8.55808 5.55C9.37948 2.35834 12.2767 0 15.7248 0C19.1728 0 22.0701 2.35834 22.8915 5.55H28.6742C30.7175 5.55 32.374 7.20649 32.374 9.24989V28.2506C31.3534 27.925 30.2658 27.7492 29.1372 27.7492C23.2624 27.7492 18.5 32.5116 18.5 38.3864C18.5 39.8636 18.8011 41.2704 19.3453 42.5489H3.69989C1.6565 42.5489 0 40.8924 0 38.849V9.24989C0 7.20649 1.6565 5.55 3.69989 5.55H8.55808ZM17.5749 6.47468C17.5749 7.49638 16.7466 8.32463 15.7249 8.32463C14.7032 8.32463 13.875 7.49638 13.875 6.47468C13.875 5.45299 14.7032 4.62474 15.7249 4.62474C16.7466 4.62474 17.5749 5.45299 17.5749 6.47468ZM7.86175 14.7994C7.09548 14.7994 6.47429 15.4206 6.47429 16.1868C6.47429 16.9531 7.09548 17.5743 7.86175 17.5743H24.5113C25.2775 17.5743 25.8987 16.9531 25.8987 16.1868C25.8987 15.4206 25.2775 14.7994 24.5113 14.7994H7.86175ZM10.1743 22.6616C10.1743 21.8953 10.7955 21.2741 11.5617 21.2741H19.8865C20.6528 21.2741 21.274 21.8953 21.274 22.6616C21.274 23.4279 20.6528 24.049 19.8865 24.049H11.5617C10.7955 24.049 10.1743 23.4279 10.1743 22.6616Z" fill="white"/>
<path fill-rule="evenodd" clip-rule="evenodd" d="M36.9999 38.386C36.9999 42.7282 33.4799 46.2482 29.1377 46.2482C24.7954 46.2482 21.2754 42.7282 21.2754 38.386C21.2754 34.0437 24.7954 30.5237 29.1377 30.5237C33.4799 30.5237 36.9999 34.0437 36.9999 38.386ZM29.1389 34.0696C29.7349 34.0696 30.218 34.5527 30.218 35.1487V37.3071H32.3748C32.9708 37.3071 33.4539 37.7902 33.4539 38.3862C33.4539 38.9821 32.9708 39.4653 32.3748 39.4653H30.218V41.6231C30.218 42.2191 29.7349 42.7022 29.1389 42.7022C28.543 42.7022 28.0598 42.2191 28.0598 41.6231V39.4653H25.9004C25.3044 39.4653 24.8213 38.9821 24.8213 38.3862C24.8213 37.7902 25.3044 37.3071 25.9004 37.3071H28.0598V35.1487C28.0598 34.5527 28.543 34.0696 29.1389 34.0696Z" fill="white"/>
</svg>
