<svg width="157" height="138" viewBox="0 0 157 138" fill="none" xmlns="http://www.w3.org/2000/svg">
<path fill-rule="evenodd" clip-rule="evenodd" d="M12 0C5.37305 0 0 5.37256 0 12V126C0 132.627 5.37305 138 12 138H145C151.627 138 157 132.627 157 126V12C157 5.37256 151.627 0 145 0H12ZM35.5 112C42.4033 112 48 106.403 48 99.5C48 92.5967 42.4033 87 35.5 87C28.5967 87 23 92.5967 23 99.5C23 106.403 28.5967 112 35.5 112ZM91 99.5C91 106.403 85.4033 112 78.5 112C71.5967 112 66 106.403 66 99.5C66 92.5967 71.5967 87 78.5 87C85.4033 87 91 92.5967 91 99.5ZM121.5 112C128.403 112 134 106.403 134 99.5C134 92.5967 128.403 87 121.5 87C114.597 87 109 92.5967 109 99.5C109 106.403 114.597 112 121.5 112Z" fill="#777777"/>
</svg>
