<!-- main color: #777777 -->
<svg width="248" height="311" viewBox="0 0 248 311" fill="none" xmlns="http://www.w3.org/2000/svg">
<path d="M126 74V8.018C126 5.24381 129.442 3.9559 131.263 6.04873L188.676 72.0307C190.365 73.9722 188.986 77 186.413 77H129C127.343 77 126 75.6569 126 74Z" fill="#777777"/>
<path fill-rule="evenodd" clip-rule="evenodd" d="M117 79V4H6C2.68629 4 0 6.68629 0 10V231C0 234.314 2.68629 237 6 237H103.006C99.7891 229.826 98 221.872 98 213.5C98 181.744 123.744 156 155.5 156C167.999 156 179.567 159.988 189 166.761V85H123C119.686 85 117 82.3137 117 79ZM46.5 140C53.4036 140 59 134.404 59 127.5C59 120.596 53.4036 115 46.5 115C39.5964 115 34 120.596 34 127.5C34 134.404 39.5964 140 46.5 140ZM89.8797 134.178C88.2565 135.325 87.5852 136.507 87.4768 137.374C87.2713 139.018 85.772 140.184 84.1279 139.979C82.4839 139.773 81.3177 138.274 81.5232 136.63C81.9148 133.497 83.9935 130.99 86.4172 129.278C88.8831 127.535 92.036 126.358 95.3275 125.96C101.95 125.159 109.761 127.512 113.703 135.701C114.422 137.194 113.794 138.987 112.301 139.705C110.808 140.424 109.016 139.796 108.297 138.304C105.739 132.99 100.8 131.342 96.0475 131.917C93.6515 132.206 91.4606 133.061 89.8797 134.178ZM147.5 140C154.404 140 160 134.404 160 127.5C160 120.596 154.404 115 147.5 115C140.596 115 135 120.596 135 127.5C135 134.404 140.596 140 147.5 140Z" fill="#777777"/>
<rect x="191.021" y="242" width="34.9148" height="17" transform="rotate(45 191.021 242)" fill="#777777"/>
<rect x="205.51" y="248" width="59.5721" height="29.0056" rx="4" transform="rotate(45 205.51 248)" fill="#777777"/>
<mask id="path-5-inside-1_684_10" fill="white">
<path fill-rule="evenodd" clip-rule="evenodd" d="M157.5 265C185.39 265 208 242.39 208 214.5C208 186.61 185.39 164 157.5 164C129.61 164 107 186.61 107 214.5C107 242.39 129.61 265 157.5 265ZM157.5 251C177.658 251 194 234.658 194 214.5C194 194.342 177.658 178 157.5 178C137.342 178 121 194.342 121 214.5C121 234.658 137.342 251 157.5 251Z"/>
</mask>
<path fill-rule="evenodd" clip-rule="evenodd" d="M157.5 265C185.39 265 208 242.39 208 214.5C208 186.61 185.39 164 157.5 164C129.61 164 107 186.61 107 214.5C107 242.39 129.61 265 157.5 265ZM157.5 251C177.658 251 194 234.658 194 214.5C194 194.342 177.658 178 157.5 178C137.342 178 121 194.342 121 214.5C121 234.658 137.342 251 157.5 251Z" fill="#777777"/>
<path d="M195 214.5C195 235.211 178.211 252 157.5 252V278C192.57 278 221 249.57 221 214.5H195ZM157.5 177C178.211 177 195 193.789 195 214.5H221C221 179.43 192.57 151 157.5 151V177ZM120 214.5C120 193.789 136.789 177 157.5 177V151C122.43 151 94 179.43 94 214.5H120ZM157.5 252C136.789 252 120 235.211 120 214.5H94C94 249.57 122.43 278 157.5 278V252ZM181 214.5C181 227.479 170.479 238 157.5 238V264C184.838 264 207 241.838 207 214.5H181ZM157.5 191C170.479 191 181 201.521 181 214.5H207C207 187.162 184.838 165 157.5 165V191ZM134 214.5C134 201.521 144.521 191 157.5 191V165C130.162 165 108 187.162 108 214.5H134ZM157.5 238C144.521 238 134 227.479 134 214.5H108C108 241.838 130.162 264 157.5 264V238Z" fill="#777777" mask="url(#path-5-inside-1_684_10)"/>
<path d="M149 204L169 225" stroke="#777777" stroke-width="11" stroke-linecap="round"/>
<path d="M169 204L148 225" stroke="#777777" stroke-width="11" stroke-linecap="round"/>
</svg>
